<?xml version="1.0" encoding="UTF-8" standalone="no"?>
<!-- Created with Inkscape (http://www.inkscape.org/) -->

<svg
   xmlns:osb="http://www.openswatchbook.org/uri/2009/osb"
   xmlns:dc="http://purl.org/dc/elements/1.1/"
   xmlns:cc="http://creativecommons.org/ns#"
   xmlns:rdf="http://www.w3.org/1999/02/22-rdf-syntax-ns#"
   xmlns:svg="http://www.w3.org/2000/svg"
   xmlns="http://www.w3.org/2000/svg"
   xmlns:xlink="http://www.w3.org/1999/xlink"
   xmlns:sodipodi="http://sodipodi.sourceforge.net/DTD/sodipodi-0.dtd"
   xmlns:inkscape="http://www.inkscape.org/namespaces/inkscape"
   width="380mm"
   height="297mm"
   viewBox="0 0 380 297"
   version="1.1"
   id="svg8"
   inkscape:version="0.92.5 (2060ec1f9f, 2020-04-08)"
   sodipodi:docname="drawing.svg">
  <defs
     id="defs2">
    <inkscape:path-effect
       effect="spiro"
       id="path-effect2639"
       is_visible="true" />
    <inkscape:path-effect
       effect="spiro"
       id="path-effect2606"
       is_visible="true" />
    <inkscape:path-effect
       effect="spiro"
       id="path-effect2510"
       is_visible="true" />
    <inkscape:path-effect
       effect="spiro"
       id="path-effect2502"
       is_visible="true" />
    <inkscape:path-effect
       effect="spiro"
       id="path-effect2498"
       is_visible="true" />
    <inkscape:path-effect
       effect="spiro"
       id="path-effect2494"
       is_visible="true" />
    <inkscape:path-effect
       effect="spiro"
       id="path-effect2490"
       is_visible="true" />
    <inkscape:path-effect
       effect="spiro"
       id="path-effect2486"
       is_visible="true" />
    <linearGradient
       id="linearGradient2327"
       osb:paint="solid">
      <stop
         style="stop-color:#feec26;stop-opacity:1;"
         offset="0"
         id="stop2325" />
    </linearGradient>
    <linearGradient
       id="linearGradient2307"
       osb:paint="solid">
      <stop
         style="stop-color:#feec26;stop-opacity:1;"
         offset="0"
         id="stop2305" />
    </linearGradient>
    <linearGradient
       inkscape:collect="always"
       id="linearGradient821">
      <stop
         style="stop-color:#990ca7;stop-opacity:1;"
         offset="0"
         id="stop817" />
      <stop
         style="stop-color:#990ca7;stop-opacity:0;"
         offset="1"
         id="stop819" />
    </linearGradient>
    <radialGradient
       inkscape:collect="always"
       xlink:href="#linearGradient821"
       id="radialGradient823"
       cx="107.90385"
       cy="157.88499"
       fx="107.90385"
       fy="157.88499"
       r="78.380928"
       gradientTransform="matrix(1,0,0,0.96003359,0,6.3100967)"
       gradientUnits="userSpaceOnUse" />
  </defs>
  <sodipodi:namedview
     id="base"
     pagecolor="#ffffff"
     bordercolor="#666666"
     borderopacity="1.0"
     inkscape:pageopacity="0.0"
     inkscape:pageshadow="2"
     inkscape:zoom="0.40721154"
     inkscape:cx="653.31577"
     inkscape:cy="568.82433"
     inkscape:document-units="px"
     inkscape:current-layer="layer1"
     showgrid="false"
     showborder="true"
     inkscape:window-width="1838"
     inkscape:window-height="1006"
     inkscape:window-x="82"
     inkscape:window-y="37"
     inkscape:window-maximized="1"
     inkscape:pagecheckerboard="false" />
  <metadata
     id="metadata5">
    <rdf:RDF>
      <cc:Work
         rdf:about="">
        <dc:format>image/svg+xml</dc:format>
        <dc:type
           rdf:resource="http://purl.org/dc/dcmitype/StillImage" />
        <dc:title></dc:title>
      </cc:Work>
    </rdf:RDF>
  </metadata>
  <g
     inkscape:label="Layer 1"
     inkscape:groupmode="layer"
     id="layer1">
    <g
       id="g884"
       transform="translate(70.822115,-1.2994887)">
      <path
         transform="translate(8.2625013,8.2478022)"
         inkscape:original-d="m 73.338758,45.55283 c -19.589943,-1.677881 -80.3127031,-3.757821 -92.047625,13.844561 -5.52335,8.285025 3.526952,9.059696 -2.993418,17.586333 -4.60777,6.025547 -8.525837,9.849686 -15.34127,13.470384 -7.49477,3.981599 -15.401642,6.50212 -23.198995,9.728612 -13.373571,5.53389 0.09822,0.15459 -9.72861,6.36102 -41.17066,26.00252 22.227471,27.83344 14.967093,56.87495 -1.772775,7.09109 -26.71214,40.2656 -19.083044,47.8947 18.503421,18.50342 44.050934,6.08889 65.4810323,8.2319 5.9555438,0.59555 11.154199,3.98872 16.8379799,5.61266 9.1400068,2.61143 20.1460608,2.56503 29.5600098,3.74177 2.461717,0.30772 19.388767,14.40218 22.824818,16.4638 2.377699,1.42662 16.422793,-2.82719 14.967093,-2.61924 -3.770673,0.53867 12.99647,4.62735 18.708867,7.48355 14.745561,7.37278 43.821671,10.69289 61.739261,7.10937 15.07099,-3.0142 30.24611,-9.31985 43.77875,-16.83798 9.49073,-5.27264 15.77256,-14.452 26.19241,-19.08304 7.85942,-3.49308 18.20578,-8.92173 26.56659,-10.85115 4.77195,-1.10122 10.49073,-1.30012 14.96709,-3.74177 5.25095,-2.86416 14.96127,-4.47265 17.21216,-11.22532 3.60018,-10.80058 -6.65062,-39.74094 -9.7286,-50.51394 -3.56275,-12.46962 17.50539,-18.61283 7.10935,-30.30837 C 265.28133,95.821213 229.03342,93.363207 205.42335,87.460689 201.57576,86.498791 198.27014,83.014658 194.57221,81.473854 189.25709,79.25922 183.55484,77.556579 178.48259,74.73866 171.11639,70.646326 166.30097,62.447468 158.65119,58.274859 131.92829,43.698734 102.76842,45.55283 73.338758,45.55283 Z"
         inkscape:path-effect="#path-effect2639"
         inkscape:connector-curvature="0"
         id="path2637"
         d="M 73.338758,45.55283 C 69.014178,36.065531 61.53432,28.049141 52.368844,23.078739 43.203369,18.108337 32.404498,16.212243 22.094019,17.763006 11.783541,19.313769 2.0202003,24.302554 -5.2776777,31.749151 -12.575556,39.195748 -17.36639,49.05773 -18.708867,59.397391 c -0.769574,5.927203 -0.483677,12.161835 -2.993418,17.586333 -1.457551,3.150318 -3.796042,5.839041 -6.48833,8.030056 -2.692288,2.191014 -5.738037,3.908553 -8.85294,5.440328 -7.526496,3.701206 -15.51491,6.36678 -23.198995,9.728612 -3.582333,1.56729 -7.209649,3.37031 -9.72861,6.36102 -1.670617,1.98349 -2.772476,4.41791 -3.305299,6.95588 -0.532824,2.53797 -0.507743,5.17723 -0.07355,7.73393 0.868384,5.11338 3.326795,9.81862 6.103146,14.19955 2.776352,4.38094 5.909321,8.54593 8.349899,13.12243 2.440578,4.5765 4.186233,9.68487 3.892898,14.86316 -0.250854,4.42837 -1.980043,8.66154 -4.240377,12.47785 -2.260334,3.81632 -5.05354,7.28394 -7.670764,10.86493 -2.617224,3.58099 -5.089018,7.33215 -6.592576,11.505 -1.503558,4.17285 -1.979575,8.83828 -0.579327,13.04692 0.939852,2.82486 2.697852,5.35089 4.917,7.33546 2.219148,1.98457 4.889033,3.43722 7.71367,4.37773 5.649274,1.88103 11.793347,1.71508 17.671618,0.7672 5.878272,-0.94788 11.608471,-2.64884 17.450659,-3.79836 5.842187,-1.14953 11.915069,-1.73908 17.7280853,-0.45013 5.7825233,1.28219 11.0482465,4.36343 16.8379799,5.61266 4.8965018,1.0565 9.9660738,0.76224 14.9749138,0.82096 5.00884,0.0587 10.185866,0.52525 14.585096,2.92081 4.195786,2.28477 7.292051,6.10194 10.653295,9.49707 1.680622,1.69756 3.462051,3.3166 5.484848,4.58723 2.022798,1.27063 4.305746,2.18616 6.686675,2.3795 2.535214,0.20587 5.060459,-0.40658 7.511434,-1.08658 2.450975,-0.68001 4.913865,-1.43792 7.455659,-1.53266 3.405126,-0.12692 6.755855,0.95049 9.82169,2.43765 3.065835,1.48716 5.912065,3.38467 8.887177,5.0459 18.457801,10.30641 40.952751,10.96075 61.739261,7.10937 15.47755,-2.86772 30.65219,-8.15053 43.77875,-16.83798 9.0123,-5.96454 16.96445,-13.45791 26.19241,-19.08304 8.19727,-4.99684 17.27573,-8.4338 26.56659,-10.85115 4.97733,-1.29503 10.02877,-2.30516 14.96709,-3.74177 3.37382,-0.98148 6.71395,-2.17198 9.73811,-3.96094 3.02417,-1.78895 5.73484,-4.21134 7.47405,-7.26438 2.18931,-3.84317 2.7115,-8.47368 2.14732,-12.86056 -0.56419,-4.38688 -2.14939,-8.57778 -3.96079,-12.61286 -1.81141,-4.03507 -3.86298,-7.96712 -5.43897,-12.09982 -1.57599,-4.13271 -2.67503,-8.52216 -2.47616,-12.9407 0.23497,-5.22059 2.25126,-10.16942 4.0761,-15.06633 1.82483,-4.89691 3.5071,-10.0377 3.03325,-15.24204 -0.33367,-3.66469 -1.74885,-7.19875 -3.87717,-10.20067 -2.12833,-3.00193 -4.95403,-5.480533 -8.10814,-7.376032 -6.30821,-3.790999 -13.77578,-5.217631 -21.12465,-5.616612 -7.34888,-0.398981 -14.71652,0.161727 -22.07485,0.01946 C 219.58657,91.45952 212.09328,90.57152 205.42335,87.460689 201.67821,85.71397 198.27667,83.305264 194.57221,81.473854 189.35665,78.895386 183.60723,77.493413 178.48259,74.73866 170.89375,70.659274 165.17137,63.906832 158.65119,58.274859 147.17206,48.359469 132.84196,41.783317 117.83929,39.546077 102.83662,37.308836 87.21135,39.41796 73.338758,45.55283 Z"
         style="fill:#12182e;fill-opacity:1;stroke:#002317;stroke-width:0.26458332px;stroke-linecap:butt;stroke-linejoin:miter;stroke-opacity:0.94339624" />
      <g
         transform="translate(-3.0476324,-1.9492326)"
         id="g863">
        <path
           style="fill:none;stroke:#000000;stroke-width:0.26458332px;stroke-linecap:butt;stroke-linejoin:miter;stroke-opacity:0.00943394"
           d="m 86.060787,39.940169 c -12.784781,-3.048089 -26.401553,-2.524367 -38.914443,1.49671 -6.552486,2.105673 -12.763434,5.131649 -19.083043,7.857723 -15.27865,6.590713 -31.2878577,11.465567 -46.245439,18.755657 -14.957581,7.290091 -29.15704,17.40238 -37.570285,31.758283 -1.430762,2.441378 -2.702138,5.047828 -3.06291,7.854468 -0.180387,1.40332 -0.126225,2.84484 0.245143,4.2101 0.371368,1.36526 1.067133,2.65224 2.069412,3.65088 0.78927,0.78641 1.746292,1.37856 2.678181,1.98927 0.931889,0.6107 1.86097,1.25932 2.560302,2.12668 1.085202,1.34594 1.528556,3.1524 1.34912,4.872 -0.179436,1.7196 -0.949959,3.34841 -2.040897,4.68971 -2.181876,2.6826 -5.490863,4.16358 -8.74931,5.32092 -3.258447,1.15734 -6.65646,2.11636 -9.492111,4.09524 -1.417826,0.98945 -2.677895,2.23493 -3.539964,3.73362 -0.862069,1.49869 -1.309024,3.26137 -1.100009,4.97763 0.148055,1.21571 0.617221,2.37787 1.254994,3.42339 0.637772,1.04552 1.441709,1.98078 2.295963,2.85834 1.708508,1.75512 3.64542,3.31472 5.055121,5.31777 1.423768,2.02304 2.250414,4.43624 2.534651,6.89367 0.284237,2.45744 0.03885,4.95926 -0.551868,7.36152 -1.18143,4.80451 -3.698252,9.15674 -6.191524,13.43024 -2.493272,4.27349 -5.023861,8.61505 -6.237513,13.41153 -0.606826,2.39824 -0.873152,4.89718 -0.613671,7.35736 0.25948,2.46017 1.057365,4.88196 2.453847,6.92393 1.413083,2.06624 3.395495,3.69164 5.536317,4.98896 2.140822,1.29732 4.450236,2.28768 6.744858,3.28812 2.294622,1.00043 4.593415,2.02086 6.700948,3.37159 2.107533,1.35072 4.031958,3.05466 5.339403,5.18931 2.148751,3.50825 2.457,7.83481 4.115951,11.59949 1.66623,3.7812 4.675512,6.88327 8.193965,9.0499 3.518453,2.16662 7.530718,3.44065 11.601116,4.15174 8.140795,1.42216 16.500882,0.65408 24.7320213,1.39128 17.5432507,1.57122 33.7309617,9.86129 50.8881187,13.84455 27.541835,6.39419 56.299918,1.48643 84.564078,2.24507 21.76308,0.58415 43.81163,4.52622 65.10685,0 7.39471,-1.57172 14.5349,-4.13949 21.807,-6.20552 7.27211,-2.06603 14.80209,-3.64134 22.34593,-3.14891 3.57752,0.23352 7.15846,0.93058 10.72259,0.54306 1.78206,-0.19376 3.5517,-0.66684 5.10768,-1.5569 1.55598,-0.89007 2.89023,-2.21628 3.62695,-3.85046 0.87425,-1.93926 0.85328,-4.22645 0.11108,-6.21999 -0.74221,-1.99354 -2.16864,-3.69611 -3.89867,-4.93387 -1.73003,-1.23777 -3.75368,-2.02763 -5.83227,-2.47988 -2.07858,-0.45224 -4.21647,-0.57603 -6.34365,-0.5633 -4.25436,0.0255 -8.52319,0.59002 -12.75035,0.10903 -2.11358,-0.2405 -4.21222,-0.74788 -6.12507,-1.67851 -1.91285,-0.93062 -3.63697,-2.29957 -4.82387,-4.06488 -1.33893,-1.99144 -1.94859,-4.43555 -1.85127,-6.83328 0.0973,-2.39772 0.88172,-4.74503 2.1168,-6.80249 2.47017,-4.11491 6.61831,-6.97383 10.98625,-8.96263 4.36794,-1.9888 9.03502,-3.22393 13.53675,-4.88785 4.50173,-1.66391 8.94754,-3.8345 12.25503,-7.31224 2.3655,-2.48726 4.06615,-5.57728 5.04946,-8.86592 0.98331,-3.28864 1.25968,-6.77165 0.9612,-10.19114 -0.59696,-6.839 -3.45295,-13.31385 -7.13319,-19.10903 -3.33702,-5.25471 -7.4287,-10.17024 -9.35444,-16.08963 -1.70911,-5.25353 -1.56658,-11.02118 -0.0373,-16.32985 1.52926,-5.30867 4.39866,-10.17385 7.95613,-14.40055 7.11493,-8.45342 16.77213,-14.28509 26.13134,-20.157714 2.27844,-1.429652 4.61777,-2.935754 6.1084,-5.174774 0.74532,-1.11951 1.25656,-2.413417 1.34529,-3.755403 0.0887,-1.341987 -0.26609,-2.73093 -1.09268,-3.791852 -0.55551,-0.713001 -1.30533,-1.260969 -2.12162,-1.649098 -0.81628,-0.388129 -1.69907,-0.621661 -2.59054,-0.770842 -1.78293,-0.298361 -3.60924,-0.266105 -5.39064,-0.573479 -3.87123,-0.667965 -7.26896,-2.877506 -10.85114,-4.490128 -8.50304,-3.82789 -18.11778,-4.296503 -27.43762,-3.988459 -9.31985,0.308043 -18.6787,1.328957 -27.94062,0.246685 C 201.62931,74.125485 190.57597,69.469914 180.4088,63.617898 170.24162,57.765883 160.83195,50.705831 151.16764,44.05612 c -4.19719,-2.887953 -8.46333,-5.710757 -13.05635,-7.915474 -4.59303,-2.204717 -9.54533,-3.785002 -14.63277,-4.0582 -6.30084,-0.338359 -12.55012,1.332255 -18.44388,3.585826 -5.893769,2.25357 -11.550775,5.098942 -17.477145,7.265316 -1.549387,0.566376 -3.14228,1.090898 -4.790638,1.156465 -0.824179,0.03278 -1.657064,-0.05163 -2.444266,-0.297918 -0.787203,-0.246288 -1.528105,-0.657778 -2.119529,-1.232724 -0.570856,-0.554951 -0.995933,-1.258565 -1.221595,-2.02206 -0.225661,-0.763494 -0.251396,-1.58514 -0.07396,-2.36126 0.177439,-0.77612 0.55765,-1.504957 1.092658,-2.094545 0.535008,-0.589588 1.2236,-1.038591 1.97889,-1.290355 0.75529,-0.251763 1.575566,-0.305716 2.357325,-0.15505 0.781758,0.150666 1.52323,0.505608 2.130853,1.020041 0.607623,0.514432 1.080023,1.18719 1.357591,1.933382 0.277567,0.746193 0.359674,1.564131 0.23596,2.350605 z"
           id="path2604"
           inkscape:connector-curvature="0"
           inkscape:path-effect="#path-effect2606"
           inkscape:original-d="m 86.060787,39.940169 c -12.883555,0.713494 -26.292064,-1.796085 -38.914443,1.49671 -8.021849,2.092656 -10.910077,4.860968 -19.083043,7.857723 -25.3601089,9.298707 -72.99571,20.758904 -83.815724,50.51394 -1.13384,3.118058 -2.612196,12.360538 -0.748355,15.715448 1.078458,1.94122 5.238483,1.89527 5.238483,4.11595 0,2.81743 -21.278345,18.50981 -23.573171,27.68912 -1.869988,7.47995 7.428846,6.89057 8.606078,11.5995 0.07702,0.30806 -18.49342,40.54723 -8.606078,55.37825 5.532189,8.29828 16.462176,11.59841 24.321526,16.83798 2.092381,1.39492 -1.546526,8.41435 4.115951,11.59949 13.626526,7.66492 29.703005,10.4035 44.5271023,14.59292 16.7069237,4.72152 33.7722647,11.21136 50.8881187,13.84455 27.499606,4.23071 56.564538,2.24507 84.564078,2.24507 21.35444,0 43.88321,2.12238 65.10685,0 15.02549,-1.50255 29.24881,-6.98331 44.15293,-9.35443 6.44942,-1.02604 13.76486,-1.0694 19.45722,-4.8643 6.02797,-4.01866 -38.31348,-15.78347 -39.6628,-19.8314 -5.13143,-15.39429 31.50907,-20.96227 37.04356,-34.79849 4.54749,-11.36872 4.1158,-27.21321 -1.12253,-38.16609 -1.79652,-3.75634 -9.35444,-12.7757 -9.35444,-16.08963 0,-1.72984 29.72644,-44.20601 34.05015,-50.888114 1.00436,-1.552192 7.50866,-11.574381 6.36101,-12.722029 -2.04346,-2.043457 -7.54613,-2.141197 -10.1028,-2.993419 -3.51647,-1.17216 -7.23643,-3.586451 -10.85114,-4.490128 -17.83304,-4.458263 -37.35878,0.76309 -55.37824,-3.741774 C 191.81503,70.120504 171.33459,53.736255 151.16764,44.05612 142.10255,39.704875 132.69986,36.034448 123.47852,32.082446 112.16625,27.234332 96.357563,38.79238 87.557495,42.933588 c -1.19933,0.56439 -15.234282,2.565746 -9.354433,-0.374177 2.47487,-1.237435 5.491437,-0.844526 7.857725,-2.619242 z" />
        <g
           id="g2631">
          <path
             sodipodi:open="true"
             d="m 183.78478,157.88513 a 75.880844,72.748146 0 0 1 -75.316,72.74613 75.880844,72.748146 0 0 1 -76.437277,-71.66312 75.880844,72.748146 0 0 1 74.178047,-73.813015 75.880844,72.748146 0 0 1 77.5416,70.564225"
             sodipodi:end="6.25341"
             sodipodi:start="0"
             sodipodi:ry="72.748146"
             sodipodi:rx="75.880844"
             sodipodi:cy="157.88513"
             sodipodi:cx="107.90394"
             sodipodi:type="arc"
             id="path815"
             style="opacity:1;fill:#b000ff;fill-opacity:0.91037741;stroke:url(#radialGradient823);stroke-width:5;stroke-miterlimit:4;stroke-dasharray:none;stroke-opacity:1" />
          <g
             style="stroke-width:15.875;stroke-miterlimit:4;stroke-dasharray:none"
             transform="translate(2.6192415,0.56126392)"
             id="g2460">
            <g
               style="stroke-width:15.875;stroke-miterlimit:4;stroke-dasharray:none"
               id="g2439"
               transform="translate(-2.0579766,-13.096203)">
              <g
                 style="stroke-width:15.875;stroke-miterlimit:4;stroke-dasharray:none"
                 transform="translate(7.6706354,-112.44029)"
                 id="g2474">
                <path
                   sodipodi:nodetypes="cc"
                   style="opacity:1;fill:none;fill-opacity:0.00943394;stroke:#f88c00;stroke-width:60;stroke-miterlimit:4;stroke-dasharray:none;stroke-opacity:1"
                   d="m 640.99506,887.69341 c 110.368,11.71477 177.96615,22.34812 180.58792,42.39641"
                   id="path2465"
                   transform="matrix(0.26458333,0,0,0.26458333,4.8643065,39.475705)"
                   inkscape:connector-curvature="0" />
                <path
                   style="opacity:1;fill:none;fill-opacity:0.00943394;stroke:#f88c00;stroke-width:60;stroke-miterlimit:4;stroke-dasharray:none;stroke-opacity:1"
                   d="m 842.08908,985.24414 c 2.17067,16.88626 -3.23776,53.20816 -82.67687,65.37536 -79.43912,12.1672 -215.41843,28.4455 -329.92166,26.5047 -122.93774,-2.0838 -264.73747,-19.3701 -342.73687,-29.7904 -82.6153543,-11.0369 -181.112403,-34.779 -183.302166,-51.66524 -8.614384,-21.11912 131.299293,-53.51911 189.363697,-60.99848 l -0.28066,0.0415 c 0,0 0.07017,-0.0104 0.28066,-0.0415"
                   id="path825"
                   inkscape:connector-curvature="0"
                   sodipodi:nodetypes="csssccsc"
                   transform="matrix(0.26458333,0,0,0.26458333,-0.56126488,24.882791)" />
              </g>
            </g>
          </g>
          <path
             d="M 81.53077,135.56906 A 13.37684,12.160764 0 0 1 68.253505,147.72949 13.37684,12.160764 0 0 1 54.778573,135.7501 13.37684,12.160764 0 0 1 67.855231,123.41133 13.37684,12.160764 0 0 1 81.524841,135.20702"
             sodipodi:open="true"
             sodipodi:end="6.25341"
             sodipodi:start="0"
             sodipodi:ry="12.160764"
             sodipodi:rx="13.37684"
             sodipodi:cy="135.56906"
             sodipodi:cx="68.153931"
             sodipodi:type="arc"
             id="path2476"
             style="opacity:1;fill:#fffff8;fill-opacity:1;stroke:#fdffff;stroke-width:5;stroke-miterlimit:4;stroke-dasharray:none;stroke-opacity:1" />
          <path
             d="m 108.65305,113.65309 a 9.4565563,8.8557978 0 0 1 -9.386163,8.85555 9.4565563,8.8557978 0 0 1 -9.5259,-8.72371 9.4565563,8.8557978 0 0 1 9.244347,-8.98543 9.4565563,8.8557978 0 0 1 9.663526,8.58995"
             sodipodi:open="true"
             sodipodi:end="6.25341"
             sodipodi:start="0"
             sodipodi:ry="8.8557978"
             sodipodi:rx="9.4565563"
             sodipodi:cy="113.65309"
             sodipodi:cx="99.196495"
             sodipodi:type="arc"
             id="path2478"
             style="opacity:1;fill:#f9ffff;fill-opacity:1;stroke:#f82000;stroke-width:4.50863028;stroke-miterlimit:4;stroke-dasharray:none;stroke-opacity:0" />
          <path
             d="m 118.41329,145.64526 a 11.405492,11.038231 0 0 1 -11.32059,11.03793 11.405492,11.038231 0 0 1 -11.489131,-10.8736 11.405492,11.038231 0 0 1 11.149551,-11.1998 11.405492,11.038231 0 0 1 11.65511,10.70686"
             sodipodi:open="true"
             sodipodi:end="6.25341"
             sodipodi:start="0"
             sodipodi:ry="11.038231"
             sodipodi:rx="11.405492"
             sodipodi:cy="145.64526"
             sodipodi:cx="107.0078"
             sodipodi:type="arc"
             id="path2480"
             style="opacity:1;fill:#ffffff;fill-opacity:1;stroke:#f82000;stroke-width:4.80541945;stroke-miterlimit:4;stroke-dasharray:none;stroke-opacity:0.004717" />
          <path
             transform="matrix(0.29650719,0,0,0.24362571,18.231108,80.901019)"
             inkscape:transform-center-y="-0.35089642"
             inkscape:transform-center-x="0.29161345"
             d="M 39.158334,109.14583 23.551743,103.32873 9.9121396,112.88726 10.621829,96.24693 -2.6837449,86.228645 13.361458,81.761454 18.777764,66.011281 27.984556,79.890738 44.637591,80.17488 34.282499,93.220048 Z"
             inkscape:randomized="0"
             inkscape:rounded="0"
             inkscape:flatsided="false"
             sodipodi:arg2="1.4435586"
             sodipodi:arg1="0.81524005"
             sodipodi:r2="12.540525"
             sodipodi:r1="25.081049"
             sodipodi:cy="90.88958"
             sodipodi:cx="21.960417"
             sodipodi:sides="5"
             id="path2482"
             style="opacity:1;fill:#f3d225;fill-opacity:1;stroke:#f81800;stroke-width:15.875;stroke-miterlimit:4;stroke-dasharray:none;stroke-opacity:1"
             sodipodi:type="star" />
          <path
             inkscape:original-d="M 28.310416,93.8 C 38.229921,79.913659 61.59968,74.793413 72.231249,65.225"
             inkscape:path-effect="#path-effect2486"
             inkscape:connector-curvature="0"
             id="path2484"
             d="M 28.310416,93.8 72.231249,65.225"
             style="fill:none;stroke:#000000;stroke-width:0.26458332px;stroke-linecap:butt;stroke-linejoin:miter;stroke-opacity:1" />
          <path
             inkscape:original-d="M 28.310416,93.799997 C 39.323166,90.708275 49.092043,84.41673 59.531249,79.777084 63.704697,77.922217 68.99058,78.222418 72.760416,76.3375"
             inkscape:path-effect="#path-effect2490"
             inkscape:connector-curvature="0"
             id="path2488"
             d="M 28.310416,93.799997 C 38.106633,87.899664 48.613522,83.180469 59.531249,79.777084 63.882789,78.420578 68.299233,77.272302 72.760416,76.3375"
             style="fill:none;stroke:#000000;stroke-width:0.26458332px;stroke-linecap:butt;stroke-linejoin:miter;stroke-opacity:1" />
          <path
             inkscape:original-d="M 34.13125,95.3875 C 48.838217,82.971377 70.533693,83.405283 88.899999,81.364584"
             inkscape:path-effect="#path-effect2494"
             inkscape:connector-curvature="0"
             id="path2492"
             d="M 34.13125,95.3875 88.899999,81.364584"
             style="fill:none;stroke:#000000;stroke-width:0.26458332px;stroke-linecap:butt;stroke-linejoin:miter;stroke-opacity:1" />
          <path
             inkscape:original-d="M 34.13125,95.387497 C 47.696323,86.242241 74.523758,74.485417 90.487499,74.485417"
             inkscape:path-effect="#path-effect2498"
             inkscape:connector-curvature="0"
             id="path2496"
             d="M 34.13125,95.387497 90.487499,74.485417"
             style="fill:none;stroke:#000000;stroke-width:0.26458332px;stroke-linecap:butt;stroke-linejoin:miter;stroke-opacity:1" />
          <path
             inkscape:original-d="M 35.71875,103.58958 C 50.542049,98.96531 65.878288,93.165593 81.227082,90.095834"
             inkscape:path-effect="#path-effect2502"
             inkscape:connector-curvature="0"
             id="path2500"
             d="M 35.71875,103.58958 81.227082,90.095834"
             style="fill:none;stroke:#000000;stroke-width:0.26458332px;stroke-linecap:butt;stroke-linejoin:miter;stroke-opacity:1" />
        </g>
      </g>
    </g>
  </g>
</svg>
